# xmcd
#
# Track frame offsets:
#	150
#	10188
#	25089
#	45661
#	71513
#	89610
#	106546
#	127810
#	146432
#
# Disc length: 2734 seconds
#
# Revision: 1
# Processed by: cddbd v1.5.1PL2 Copyright (c) Steve Scherf et al.
# Submitted via: EasyCDDAExtractor 9.0.0.1
#
DISCID=670aac09
DTITLE=Dio - Sports Arena Toledo 12-01-85 Disc 1
DYEAR=1985
DGENRE=Hard Rock
TTITLE0=Intro
TTITLE1=Stand Up And Shout
TTITLE2=One Night In The City
TTITLE3=Don't Talk To Strangers
TTITLE4=Mystery
TTITLE5=Egypt (The Chains Are On)
TTITLE6=Holy Diver
TTITLE7=Drum Solo
TTITLE8=Heaven and Hell
EXTD=
EXTT0=
EXTT1=
EXTT2=
EXTT3=
EXTT4=
EXTT5=
EXTT6=
EXTT7=
EXTT8=
PLAYORDER=
